<?xml version="1.0" encoding="utf-8"?>
<!-- Generator: Adobe Illustrator 26.0.1, SVG Export Plug-In . SVG Version: 6.00 Build 0)  -->
<svg version="1.1" id="Layer_1" xmlns="http://www.w3.org/2000/svg" xmlns:xlink="http://www.w3.org/1999/xlink" x="0px" y="0px"
	 viewBox="0 0 595.28 841.89" style="enable-background:new 0 0 595.28 841.89;" xml:space="preserve">
<style type="text/css">
	.st0{fill:#FFFFFF;}
	.st1{fill:#781341;}
	.st2{fill:#010101;}
</style>
<g>
	<polygon class="st0" points="111.6,251.11 224.83,294.2 318.16,294.2 360.56,312.82 473.19,258.54 475.52,328.61 457.72,367.23 
		458.46,377.18 529,397.26 485.94,610.59 277.61,609.63 219.28,515.75 172.61,450.75 100.84,400.48 91,349.11 95.97,329.52 
		94.84,277.99 	"/>
	<g>
		<path class="st1" d="M111.6,273.59l2.28,48.52l93.38,43.92l38.71,57.22l71.95-8.84l57.69-20.84l14.32-32.05l72.06-77.93
			c0.67,11.39,7.74,37.28-3.22,49.9l-29.22,59.35l-38.87,12.86l-23.4,50.51l30.99,27.42l-10.21,21.12l80.44,70.53l40.76-161.14
			c0,0-83.49-14.3-75.19-30.69c5.02-9.92,34.19-67.91,33.39-73.68c-1.27-9.13-6.2-32.39-6.2-32.39s-96.35,48.19-101.17,51.41
			c-4.82,3.22-52.34-10.85-52.34-10.85l-65.71,0.17L111.6,273.59z"/>
		<path class="st2" d="M447.78,386.14l-2.08-20.11c0,0,15.06-27.5,22.3-43.37c0.23-15.73-1.53-48.64-1.53-48.64
			s-39.68,15.32-51.73,21.65c-12.02,6.32-44.82,24.66-51.11,26.46c-6.34,1.8-18.35-2.25-18.35-2.25s-15.98-11-26.81-13.69
			c-10.8-2.69-82.37-1.51-91.69-0.6c-9.33,0.9-110.06-43.01-112.75-43.6c-2.7-0.61-9.34,15.02-9.62,17.74
			c-0.31,2.72-4.82,49.31-1.51,55.02c3.31,5.7,11.72,16.83,11.72,16.83l-11.42,0.61c0,0-2.4,26.46,4.5,36.66
			c6.73,13.01,63.12,49.77,69.86,54.44c6.64,6.63,45.6,49.3,54.03,67.64c8.45,18.34,48.88,78.76,52.87,88.05
			c58.03,0.52,167.54-2.33,193.77,0c0,0,2.97-9.45,40.97-192.2 M214.67,457.2c-6.4-2.4-14.69-20.75-26.44-29.15
			c-9.41-6.98-29.17-16.03-57.61-33.01c-10.69-6.2-17.77-17.16-15.07-26.73l47.91,18.65c0,0,0.65-13.1-4.27-17.38
			c-4.94-4.24-11.89-9.73-19.76-9.46c-7.91,0.26-7.5-0.29-10.03-2.81c-2.53-2.55-9.89-28.71-11.48-32.17
			c-1.6-3.48,1.87-10.14,1.87-10.14l6.77-0.98l-7.61-13.94c0,0,6.02-18.66,7.61-19.06c1.61-0.41,20.37,10.97,27.97,14.59
			c7.61,3.59,43.59,20.79,52.65,23.19c9.08,2.42,27.26,1.58,43.81,0.4c12.14-0.67,54.75,0,59.43,1.18
			c4.66,1.21,32.21,17.68,32.21,17.68s-21.85,57.92-28.28,72.83c-6.42,14.89-17.14,29.02-28.47,32.76
			C285.88,443.67,221.09,459.6,214.67,457.2L214.67,457.2z M381.72,511.02c-11.65,6.08-129.88,6.38-129.88,6.38
			s2.07,11.03,4.08,13.32c2.05,2.27,123.8-2.03,139.04-6.06c12.26-24.31,44.18-119.27,48.72-125.62
			c5.89,2.14,57.02,18.07,57.02,18.07c-8.12,42.06-34.57,168.85-34.57,168.85c-18.03,1.86-130.64,2.29-171.98-0.79
			c-0.01,0-27.91-51.89-34.52-65.85c-6.62-13.97-31.74-51.04-31.74-51.04s76.16-13.21,81.75-18.53c5.61-5.33,24.12-43.15,29.7-54.08
			c5.6-10.92,20.31-55.6,20.31-55.6l100.05-53.04c0,0,1.26,7.51-0.35,35.11l-18.94,32.42l-13.67,19.41l-1.28,17.78L381.72,511.02z"
			/>
		<path class="st2" d="M412.35,372.74c0,0-16.1-6.64-10.81-26.62c5.29-19.98,50.65-51.93,50.65-51.93l-20.87,57.55L412.35,372.74z"
			/>
		<polygon class="st2" points="238.34,347.21 266.52,334.08 288.23,360.33 		"/>
		<path class="st2" d="M459.29,589.56"/>
		<path class="st2" d="M414.23,567.55"/>
		<path class="st2" d="M427.94,379.19"/>
		<circle class="st2" cx="452.18" cy="422.84" r="6.38"/>
		<circle class="st2" cx="479.57" cy="431.51" r="6.38"/>
	</g>
</g>
</svg>
