<?xml version="1.0" encoding="utf-8"?>
<!-- Generator: Adobe Illustrator 26.0.1, SVG Export Plug-In . SVG Version: 6.00 Build 0)  -->
<svg version="1.1" id="Layer_1" xmlns="http://www.w3.org/2000/svg" xmlns:xlink="http://www.w3.org/1999/xlink" x="0px" y="0px"
	 viewBox="0 0 595.28 841.89" style="enable-background:new 0 0 595.28 841.89;" xml:space="preserve">
<style type="text/css">
	.st0{fill:#FFFFFF;}
	.st1{fill:#1E58A8;}
	.st2{fill:#010101;}
</style>
<g>
	<polygon class="st0" points="83.97,227.3 204.69,273.25 304.2,273.25 349.4,293.11 469.5,235.23 471.98,309.93 453,351.11 
		453.78,361.73 529,383.14 483.09,610.59 260.96,609.57 198.77,509.47 149.02,440.17 72.49,386.57 62,331.79 67.3,310.91 
		66.1,255.97 	"/>
	<g>
		<path class="st1" d="M83.97,251.28l2.43,51.73l99.57,46.83l41.28,61.01l76.71-9.43l61.5-22.21l15.26-34.17l76.83-83.09
			c0.72,12.14,8.25,39.75-3.44,53.2l-31.15,63.28l-41.44,13.71l-24.94,53.86l33.05,29.24l-10.88,22.52l85.77,75.2l43.46-171.81
			c0,0-89.01-15.25-80.16-32.72c5.36-10.58,36.45-72.41,35.6-78.55c-1.36-9.73-6.61-34.54-6.61-34.54s-102.73,51.38-107.87,54.81
			c-5.14,3.43-55.81-11.57-55.81-11.57l-70.06,0.18L83.97,251.28z"/>
		<path class="st2" d="M442.4,371.28l-2.22-21.44c0,0,16.06-29.32,23.78-46.24c0.24-16.77-1.63-51.86-1.63-51.86
			s-42.31,16.33-55.16,23.08c-12.81,6.73-47.79,26.29-54.5,28.22c-6.76,1.92-19.56-2.4-19.56-2.4s-17.04-11.73-28.59-14.6
			c-11.52-2.87-87.82-1.61-97.76-0.64c-9.95,0.96-117.35-45.85-120.22-46.48c-2.88-0.65-9.96,16.02-10.26,18.91
			c-0.33,2.9-5.14,52.57-1.61,58.67c3.53,6.07,12.5,17.95,12.5,17.95L75,335.1c0,0-2.56,28.22,4.8,39.09
			c7.18,13.87,67.3,53.07,74.48,58.05c7.08,7.07,48.62,52.56,57.61,72.12c9.01,19.55,52.12,83.98,56.37,93.88
			c61.87,0.55,178.63-2.48,206.6,0c0,0,3.17-10.08,43.68-204.93 M193.86,447.04c-6.82-2.56-15.66-22.13-28.19-31.08
			c-10.04-7.44-31.1-17.09-61.42-35.19c-11.4-6.61-18.95-18.29-16.07-28.5l51.08,19.89c0,0,0.7-13.97-4.55-18.53
			c-5.26-4.52-12.68-10.38-21.07-10.08c-8.43,0.28-8-0.31-10.7-3c-2.69-2.72-10.54-30.62-12.24-34.3c-1.7-3.71,2-10.82,2-10.82
			l7.22-1.05l-8.11-14.87c0,0,6.42-19.9,8.11-20.32c1.72-0.44,21.72,11.7,29.82,15.56c8.12,3.83,46.48,22.17,56.14,24.72
			c9.68,2.58,29.07,1.69,46.71,0.43c12.95-0.72,58.38,0,63.37,1.26c4.97,1.29,34.34,18.85,34.34,18.85s-23.3,61.76-30.15,77.65
			c-6.84,15.87-18.27,30.94-30.36,34.92C269.78,432.61,200.7,449.6,193.86,447.04L193.86,447.04z M371.97,504.43
			c-12.42,6.48-138.48,6.8-138.48,6.8s2.21,11.76,4.35,14.2c2.19,2.42,132-2.16,148.24-6.46c13.08-25.91,47.11-127.17,51.94-133.94
			c6.29,2.29,60.79,19.27,60.79,19.27c-8.66,44.85-36.85,180.02-36.85,180.02c-19.23,1.98-139.29,2.44-183.36-0.85
			c-0.01,0-29.76-55.33-36.81-70.21c-7.06-14.9-33.84-54.42-33.84-54.42s81.2-14.08,87.16-19.76c5.98-5.68,25.72-46.01,31.66-57.66
			c5.97-11.64,21.66-59.28,21.66-59.28L455.1,265.6c0,0,1.34,8-0.37,37.43l-20.2,34.56l-14.57,20.7l-1.36,18.96L371.97,504.43z"/>
		<path class="st2" d="M404.62,357c0,0-17.17-7.08-11.53-28.38c5.64-21.3,54-55.37,54-55.37l-22.25,61.36L404.62,357z"/>
		<polygon class="st2" points="219.09,329.77 249.15,315.77 272.29,343.76 		"/>
		<path class="st2" d="M454.67,588.16"/>
		<path class="st2" d="M406.63,564.7"/>
		<path class="st2" d="M421.25,363.87"/>
		<circle class="st2" cx="447.1" cy="410.4" r="6.8"/>
		<circle class="st2" cx="476.3" cy="419.66" r="6.8"/>
	</g>
</g>
</svg>
